<?xml version="1.0" encoding="UTF-8" standalone="no"?>
<!DOCTYPE svg PUBLIC "-//W3C//DTD SVG 1.1//EN"
 "http://www.w3.org/Graphics/SVG/1.1/DTD/svg11.dtd">
<!-- Generated by graphviz version 2.38.0 (20140413.2041)
 -->
<!-- Title: controllers_diagram Pages: 1 -->
<svg width="538pt" height="549pt"
 viewBox="0.00 0.00 537.71 549.00" xmlns="http://www.w3.org/2000/svg" xmlns:xlink="http://www.w3.org/1999/xlink">
<g id="graph0" class="graph" transform="scale(1 1) rotate(0) translate(213.89 320.5)">
<title>controllers_diagram</title>
<polygon fill="white" stroke="none" points="-213.89,228.5 -213.89,-320.5 323.821,-320.5 323.821,228.5 -213.89,228.5"/>
<!-- _diagram_info -->
<g id="node1" class="node"><title>_diagram_info</title>
<text text-anchor="start" x="-111.688" y="-179.1" font-family="Times,serif" font-size="13.00">Controllers diagram</text>
<text text-anchor="start" x="-111.688" y="-166.1" font-family="Times,serif" font-size="13.00">Date: Jun 19 2015 &#45; 18:18</text>
<text text-anchor="start" x="-111.688" y="-153.1" font-family="Times,serif" font-size="13.00">Migration version: 20150602153858</text>
<text text-anchor="start" x="-111.688" y="-140.1" font-family="Times,serif" font-size="13.00">Generated by RailRoady 1.3.0</text>
<text text-anchor="start" x="-111.688" y="-127.1" font-family="Times,serif" font-size="13.00">http://railroady.prestonlee.com</text>
</g>
<!-- ApplicationController -->
<g id="node2" class="node"><title>ApplicationController</title>
<path fill="none" stroke="black" d="M192.179,209C192.179,209 307.821,209 307.821,209 313.821,209 319.821,203 319.821,197 319.821,197 319.821,131 319.821,131 319.821,125 313.821,119 307.821,119 307.821,119 192.179,119 192.179,119 186.179,119 180.179,125 180.179,131 180.179,131 180.179,197 180.179,197 180.179,203 186.179,209 192.179,209"/>
<text text-anchor="middle" x="250" y="134.2" font-family="Times,serif" font-size="14.00">ApplicationController</text>
<polyline fill="none" stroke="black" points="180.179,141 319.821,141 "/>
<text text-anchor="start" x="188.179" y="156.2" font-family="Times,serif" font-size="14.00">current_user</text>
<polyline fill="none" stroke="black" points="180.179,163 319.821,163 "/>
<polyline fill="none" stroke="black" points="180.179,187 319.821,187 "/>
<text text-anchor="start" x="188.179" y="202.2" font-family="Times,serif" font-size="14.00">_layout</text>
</g>
<!-- ImagesController -->
<g id="node3" class="node"><title>ImagesController</title>
<path fill="none" stroke="black" d="M102.014,89C102.014,89 191.986,89 191.986,89 197.986,89 203.986,83 203.986,77 203.986,77 203.986,-73 203.986,-73 203.986,-79 197.986,-85 191.986,-85 191.986,-85 102.014,-85 102.014,-85 96.0137,-85 90.0137,-79 90.0137,-73 90.0137,-73 90.0137,77 90.0137,77 90.0137,83 96.0137,89 102.014,89"/>
<text text-anchor="middle" x="147" y="-69.8" font-family="Times,serif" font-size="14.00">ImagesController</text>
<polyline fill="none" stroke="black" points="90.0137,-63 203.986,-63 "/>
<text text-anchor="start" x="98.0137" y="-47.8" font-family="Times,serif" font-size="14.00">create</text>
<text text-anchor="start" x="98.0137" y="-33.8" font-family="Times,serif" font-size="14.00">destroy</text>
<text text-anchor="start" x="98.0137" y="-19.8" font-family="Times,serif" font-size="14.00">index</text>
<text text-anchor="start" x="98.0137" y="-5.8" font-family="Times,serif" font-size="14.00">show</text>
<text text-anchor="start" x="98.0137" y="8.2" font-family="Times,serif" font-size="14.00">update</text>
<polyline fill="none" stroke="black" points="90.0137,15 203.986,15 "/>
<polyline fill="none" stroke="black" points="90.0137,39 203.986,39 "/>
<text text-anchor="start" x="98.0137" y="54.2" font-family="Times,serif" font-size="14.00">_layout</text>
<text text-anchor="start" x="98.0137" y="68.2" font-family="Times,serif" font-size="14.00">image_params</text>
<text text-anchor="start" x="98.0137" y="82.2" font-family="Times,serif" font-size="14.00">set_image</text>
</g>
<!-- OmniauthCallbacksController -->
<g id="node4" class="node"><title>OmniauthCallbacksController</title>
<path fill="none" stroke="black" d="M131.627,-121C131.627,-121 292.373,-121 292.373,-121 298.373,-121 304.373,-127 304.373,-133 304.373,-133 304.373,-199 304.373,-199 304.373,-205 298.373,-211 292.373,-211 292.373,-211 131.627,-211 131.627,-211 125.627,-211 119.627,-205 119.627,-199 119.627,-199 119.627,-133 119.627,-133 119.627,-127 125.627,-121 131.627,-121"/>
<text text-anchor="middle" x="212" y="-195.8" font-family="Times,serif" font-size="14.00">OmniauthCallbacksController</text>
<polyline fill="none" stroke="black" points="119.627,-189 304.373,-189 "/>
<text text-anchor="start" x="127.627" y="-173.8" font-family="Times,serif" font-size="14.00">instagram</text>
<polyline fill="none" stroke="black" points="119.627,-167 304.373,-167 "/>
<polyline fill="none" stroke="black" points="119.627,-143 304.373,-143 "/>
<text text-anchor="start" x="127.627" y="-127.8" font-family="Times,serif" font-size="14.00">_layout</text>
</g>
<!-- RegistrationsController -->
<g id="node5" class="node"><title>RegistrationsController</title>
<path fill="none" stroke="black" d="M12.2861,224C12.2861,224 135.714,224 135.714,224 141.714,224 147.714,218 147.714,212 147.714,212 147.714,132 147.714,132 147.714,126 141.714,120 135.714,120 135.714,120 12.2861,120 12.2861,120 6.28613,120 0.286133,126 0.286133,132 0.286133,132 0.286133,212 0.286133,212 0.286133,218 6.28613,224 12.2861,224"/>
<text text-anchor="middle" x="74" y="135.2" font-family="Times,serif" font-size="14.00">RegistrationsController</text>
<polyline fill="none" stroke="black" points="0.286133,142 147.714,142 "/>
<text text-anchor="start" x="8.28613" y="157.2" font-family="Times,serif" font-size="14.00">create</text>
<text text-anchor="start" x="8.28613" y="171.2" font-family="Times,serif" font-size="14.00">sign_up_params</text>
<polyline fill="none" stroke="black" points="0.286133,178 147.714,178 "/>
<polyline fill="none" stroke="black" points="0.286133,202 147.714,202 "/>
<text text-anchor="start" x="8.28613" y="217.2" font-family="Times,serif" font-size="14.00">_layout</text>
</g>
<!-- SessionsController -->
<g id="node6" class="node"><title>SessionsController</title>
<path fill="none" stroke="black" d="M-197.89,44C-197.89,44 -100.11,44 -100.11,44 -94.1104,44 -88.1104,38 -88.1104,32 -88.1104,32 -88.1104,-76 -88.1104,-76 -88.1104,-82 -94.1104,-88 -100.11,-88 -100.11,-88 -197.89,-88 -197.89,-88 -203.89,-88 -209.89,-82 -209.89,-76 -209.89,-76 -209.89,32 -209.89,32 -209.89,38 -203.89,44 -197.89,44"/>
<text text-anchor="middle" x="-149" y="-72.8" font-family="Times,serif" font-size="14.00">SessionsController</text>
<polyline fill="none" stroke="black" points="-209.89,-66 -88.1104,-66 "/>
<text text-anchor="start" x="-201.89" y="-50.8" font-family="Times,serif" font-size="14.00">create</text>
<text text-anchor="start" x="-201.89" y="-36.8" font-family="Times,serif" font-size="14.00">destroy</text>
<text text-anchor="start" x="-201.89" y="-22.8" font-family="Times,serif" font-size="14.00">show</text>
<polyline fill="none" stroke="black" points="-209.89,-16 -88.1104,-16 "/>
<polyline fill="none" stroke="black" points="-209.89,8 -88.1104,8 "/>
<text text-anchor="start" x="-201.89" y="23.2" font-family="Times,serif" font-size="14.00">_layout</text>
<text text-anchor="start" x="-201.89" y="37.2" font-family="Times,serif" font-size="14.00">current_user</text>
</g>
<!-- StaticsController -->
<g id="node7" class="node"><title>StaticsController</title>
<path fill="none" stroke="black" d="M-3.43799,-226C-3.43799,-226 83.438,-226 83.438,-226 89.438,-226 95.438,-232 95.438,-238 95.438,-238 95.438,-304 95.438,-304 95.438,-310 89.438,-316 83.438,-316 83.438,-316 -3.43799,-316 -3.43799,-316 -9.43799,-316 -15.438,-310 -15.438,-304 -15.438,-304 -15.438,-238 -15.438,-238 -15.438,-232 -9.43799,-226 -3.43799,-226"/>
<text text-anchor="middle" x="40" y="-300.8" font-family="Times,serif" font-size="14.00">StaticsController</text>
<polyline fill="none" stroke="black" points="-15.438,-294 95.438,-294 "/>
<text text-anchor="start" x="-7.43799" y="-278.8" font-family="Times,serif" font-size="14.00">index</text>
<polyline fill="none" stroke="black" points="-15.438,-272 95.438,-272 "/>
<polyline fill="none" stroke="black" points="-15.438,-248 95.438,-248 "/>
<text text-anchor="start" x="-7.43799" y="-232.8" font-family="Times,serif" font-size="14.00">_layout</text>
</g>
<!-- StoriesController -->
<g id="node8" class="node"><title>StoriesController</title>
<path fill="none" stroke="black" d="M-48.2173,89C-48.2173,89 40.2173,89 40.2173,89 46.2173,89 52.2173,83 52.2173,77 52.2173,77 52.2173,-73 52.2173,-73 52.2173,-79 46.2173,-85 40.2173,-85 40.2173,-85 -48.2173,-85 -48.2173,-85 -54.2173,-85 -60.2173,-79 -60.2173,-73 -60.2173,-73 -60.2173,77 -60.2173,77 -60.2173,83 -54.2173,89 -48.2173,89"/>
<text text-anchor="middle" x="-4" y="-69.8" font-family="Times,serif" font-size="14.00">StoriesController</text>
<polyline fill="none" stroke="black" points="-60.2173,-63 52.2173,-63 "/>
<text text-anchor="start" x="-52.2173" y="-47.8" font-family="Times,serif" font-size="14.00">create</text>
<text text-anchor="start" x="-52.2173" y="-33.8" font-family="Times,serif" font-size="14.00">destroy</text>
<text text-anchor="start" x="-52.2173" y="-19.8" font-family="Times,serif" font-size="14.00">index</text>
<text text-anchor="start" x="-52.2173" y="-5.8" font-family="Times,serif" font-size="14.00">show</text>
<text text-anchor="start" x="-52.2173" y="8.2" font-family="Times,serif" font-size="14.00">update</text>
<polyline fill="none" stroke="black" points="-60.2173,15 52.2173,15 "/>
<polyline fill="none" stroke="black" points="-60.2173,39 52.2173,39 "/>
<text text-anchor="start" x="-52.2173" y="54.2" font-family="Times,serif" font-size="14.00">_layout</text>
<text text-anchor="start" x="-52.2173" y="68.2" font-family="Times,serif" font-size="14.00">set_story</text>
<text text-anchor="start" x="-52.2173" y="82.2" font-family="Times,serif" font-size="14.00">story_params</text>
</g>
<!-- UsersController -->
<g id="node9" class="node"><title>UsersController</title>
<path fill="none" stroke="black" d="M-182.714,194C-182.714,194 -101.286,194 -101.286,194 -95.2861,194 -89.2861,188 -89.2861,182 -89.2861,182 -89.2861,88 -89.2861,88 -89.2861,82 -95.2861,76 -101.286,76 -101.286,76 -182.714,76 -182.714,76 -188.714,76 -194.714,82 -194.714,88 -194.714,88 -194.714,182 -194.714,182 -194.714,188 -188.714,194 -182.714,194"/>
<text text-anchor="middle" x="-142" y="91.2" font-family="Times,serif" font-size="14.00">UsersController</text>
<polyline fill="none" stroke="black" points="-194.714,98 -89.2861,98 "/>
<text text-anchor="start" x="-186.714" y="113.2" font-family="Times,serif" font-size="14.00">destroy</text>
<text text-anchor="start" x="-186.714" y="127.2" font-family="Times,serif" font-size="14.00">index</text>
<text text-anchor="start" x="-186.714" y="141.2" font-family="Times,serif" font-size="14.00">show</text>
<polyline fill="none" stroke="black" points="-194.714,148 -89.2861,148 "/>
<polyline fill="none" stroke="black" points="-194.714,172 -89.2861,172 "/>
<text text-anchor="start" x="-186.714" y="187.2" font-family="Times,serif" font-size="14.00">_layout</text>
</g>
</g>
</svg>
