<?xml version="1.0" encoding="UTF-8" standalone="no"?>
<!DOCTYPE svg PUBLIC "-//W3C//DTD SVG 1.1//EN"
 "http://www.w3.org/Graphics/SVG/1.1/DTD/svg11.dtd">
<!-- Generated by graphviz version 2.38.0 (20140413.2041)
 -->
<!-- Title: models_diagram Pages: 1 -->
<svg width="497pt" height="719pt"
 viewBox="0.00 0.00 497.19 719.00" xmlns="http://www.w3.org/2000/svg" xmlns:xlink="http://www.w3.org/1999/xlink">
<g id="graph0" class="graph" transform="scale(1 1) rotate(0) translate(4 715)">
<title>models_diagram</title>
<polygon fill="white" stroke="none" points="-4,4 -4,-715 493.193,-715 493.193,4 -4,4"/>
<!-- _diagram_info -->
<g id="node1" class="node"><title>_diagram_info</title>
<text text-anchor="start" x="8" y="-577.6" font-family="Times,serif" font-size="13.00">Models diagram</text>
<text text-anchor="start" x="8" y="-564.6" font-family="Times,serif" font-size="13.00">Date: Jun 19 2015 &#45; 18:18</text>
<text text-anchor="start" x="8" y="-551.6" font-family="Times,serif" font-size="13.00">Migration version: 20150602153858</text>
<text text-anchor="start" x="8" y="-538.6" font-family="Times,serif" font-size="13.00">Generated by RailRoady 1.3.0</text>
<text text-anchor="start" x="8" y="-525.6" font-family="Times,serif" font-size="13.00">http://railroady.prestonlee.com</text>
</g>
<!-- Identity -->
<g id="node2" class="node"><title>Identity</title>
<path fill="none" stroke="black" d="M178.182,-242.5C178.182,-242.5 287.193,-242.5 287.193,-242.5 293.193,-242.5 299.193,-248.5 299.193,-254.5 299.193,-254.5 299.193,-344.5 299.193,-344.5 299.193,-350.5 293.193,-356.5 287.193,-356.5 287.193,-356.5 178.182,-356.5 178.182,-356.5 172.182,-356.5 166.182,-350.5 166.182,-344.5 166.182,-344.5 166.182,-254.5 166.182,-254.5 166.182,-248.5 172.182,-242.5 178.182,-242.5"/>
<text text-anchor="middle" x="232.688" y="-341.3" font-family="Times,serif" font-size="14.00">Identity</text>
<polyline fill="none" stroke="black" points="166.182,-334.5 299.193,-334.5 "/>
<text text-anchor="start" x="174.182" y="-319.3" font-family="Times,serif" font-size="14.00">id :integer</text>
<text text-anchor="start" x="174.182" y="-305.3" font-family="Times,serif" font-size="14.00">user_id :integer</text>
<text text-anchor="start" x="174.182" y="-291.3" font-family="Times,serif" font-size="14.00">provider :string</text>
<text text-anchor="start" x="174.182" y="-277.3" font-family="Times,serif" font-size="14.00">uid :string</text>
<text text-anchor="start" x="174.182" y="-263.3" font-family="Times,serif" font-size="14.00">created_at :datetime</text>
<text text-anchor="start" x="174.182" y="-249.3" font-family="Times,serif" font-size="14.00">updated_at :datetime</text>
</g>
<!-- Image -->
<g id="node3" class="node"><title>Image</title>
<path fill="none" stroke="black" d="M311.624,-0.5C311.624,-0.5 437.752,-0.5 437.752,-0.5 443.752,-0.5 449.752,-6.5 449.752,-12.5 449.752,-12.5 449.752,-186.5 449.752,-186.5 449.752,-192.5 443.752,-198.5 437.752,-198.5 437.752,-198.5 311.624,-198.5 311.624,-198.5 305.624,-198.5 299.624,-192.5 299.624,-186.5 299.624,-186.5 299.624,-12.5 299.624,-12.5 299.624,-6.5 305.624,-0.5 311.624,-0.5"/>
<text text-anchor="middle" x="374.688" y="-183.3" font-family="Times,serif" font-size="14.00">Image</text>
<polyline fill="none" stroke="black" points="299.624,-176.5 449.752,-176.5 "/>
<text text-anchor="start" x="307.624" y="-161.3" font-family="Times,serif" font-size="14.00">id :integer</text>
<text text-anchor="start" x="307.624" y="-147.3" font-family="Times,serif" font-size="14.00">title :string</text>
<text text-anchor="start" x="307.624" y="-133.3" font-family="Times,serif" font-size="14.00">tags :text</text>
<text text-anchor="start" x="307.624" y="-119.3" font-family="Times,serif" font-size="14.00">image_username :string</text>
<text text-anchor="start" x="307.624" y="-105.3" font-family="Times,serif" font-size="14.00">longitude :integer</text>
<text text-anchor="start" x="307.624" y="-91.3" font-family="Times,serif" font-size="14.00">latitude :integer</text>
<text text-anchor="start" x="307.624" y="-77.3" font-family="Times,serif" font-size="14.00">location_name :string</text>
<text text-anchor="start" x="307.624" y="-63.3" font-family="Times,serif" font-size="14.00">created_at :datetime</text>
<text text-anchor="start" x="307.624" y="-49.3" font-family="Times,serif" font-size="14.00">updated_at :datetime</text>
<text text-anchor="start" x="307.624" y="-35.3" font-family="Times,serif" font-size="14.00">picture :text</text>
<text text-anchor="start" x="307.624" y="-21.3" font-family="Times,serif" font-size="14.00">story_id :integer</text>
<text text-anchor="start" x="307.624" y="-7.3" font-family="Times,serif" font-size="14.00">uploaded_at :string</text>
</g>
<!-- Story -->
<g id="node4" class="node"><title>Story</title>
<path fill="none" stroke="black" d="M368.182,-235.5C368.182,-235.5 477.193,-235.5 477.193,-235.5 483.193,-235.5 489.193,-241.5 489.193,-247.5 489.193,-247.5 489.193,-351.5 489.193,-351.5 489.193,-357.5 483.193,-363.5 477.193,-363.5 477.193,-363.5 368.182,-363.5 368.182,-363.5 362.182,-363.5 356.182,-357.5 356.182,-351.5 356.182,-351.5 356.182,-247.5 356.182,-247.5 356.182,-241.5 362.182,-235.5 368.182,-235.5"/>
<text text-anchor="middle" x="422.688" y="-348.3" font-family="Times,serif" font-size="14.00">Story</text>
<polyline fill="none" stroke="black" points="356.182,-341.5 489.193,-341.5 "/>
<text text-anchor="start" x="364.182" y="-326.3" font-family="Times,serif" font-size="14.00">id :integer</text>
<text text-anchor="start" x="364.182" y="-312.3" font-family="Times,serif" font-size="14.00">title :string</text>
<text text-anchor="start" x="364.182" y="-298.3" font-family="Times,serif" font-size="14.00">description :text</text>
<text text-anchor="start" x="364.182" y="-284.3" font-family="Times,serif" font-size="14.00">created_at :datetime</text>
<text text-anchor="start" x="364.182" y="-270.3" font-family="Times,serif" font-size="14.00">updated_at :datetime</text>
<text text-anchor="start" x="364.182" y="-256.3" font-family="Times,serif" font-size="14.00">hashtag :string</text>
<text text-anchor="start" x="364.182" y="-242.3" font-family="Times,serif" font-size="14.00">user_id :integer</text>
</g>
<!-- Story&#45;&gt;Image -->
<g id="edge1" class="edge"><title>Story&#45;&gt;Image</title>
<path fill="none" stroke="#5c4480" d="M405.421,-227.275C403.949,-221.203 402.44,-214.978 400.919,-208.704"/>
<ellipse fill="none" stroke="#5c4480" cx="406.426" cy="-231.42" rx="4.00001" ry="4.00001"/>
<polygon fill="#5c4480" stroke="#5c4480" points="400.879,-208.538 402.896,-197.759 399.701,-203.678 398.523,-198.819 398.523,-198.819 398.523,-198.819 399.701,-203.678 394.149,-199.879 400.879,-208.538 400.879,-208.538"/>
</g>
<!-- User -->
<g id="node5" class="node"><title>User</title>
<path fill="none" stroke="black" d="M237.41,-400.5C237.41,-400.5 417.966,-400.5 417.966,-400.5 423.966,-400.5 429.966,-406.5 429.966,-412.5 429.966,-412.5 429.966,-698.5 429.966,-698.5 429.966,-704.5 423.966,-710.5 417.966,-710.5 417.966,-710.5 237.41,-710.5 237.41,-710.5 231.41,-710.5 225.41,-704.5 225.41,-698.5 225.41,-698.5 225.41,-412.5 225.41,-412.5 225.41,-406.5 231.41,-400.5 237.41,-400.5"/>
<text text-anchor="middle" x="327.688" y="-695.3" font-family="Times,serif" font-size="14.00">User</text>
<polyline fill="none" stroke="black" points="225.41,-688.5 429.966,-688.5 "/>
<text text-anchor="start" x="233.41" y="-673.3" font-family="Times,serif" font-size="14.00">id :integer</text>
<text text-anchor="start" x="233.41" y="-659.3" font-family="Times,serif" font-size="14.00">email :string</text>
<text text-anchor="start" x="233.41" y="-645.3" font-family="Times,serif" font-size="14.00">encrypted_password :string</text>
<text text-anchor="start" x="233.41" y="-631.3" font-family="Times,serif" font-size="14.00">reset_password_token :string</text>
<text text-anchor="start" x="233.41" y="-617.3" font-family="Times,serif" font-size="14.00">reset_password_sent_at :datetime</text>
<text text-anchor="start" x="233.41" y="-603.3" font-family="Times,serif" font-size="14.00">remember_created_at :datetime</text>
<text text-anchor="start" x="233.41" y="-589.3" font-family="Times,serif" font-size="14.00">sign_in_count :integer</text>
<text text-anchor="start" x="233.41" y="-575.3" font-family="Times,serif" font-size="14.00">current_sign_in_at :datetime</text>
<text text-anchor="start" x="233.41" y="-561.3" font-family="Times,serif" font-size="14.00">last_sign_in_at :datetime</text>
<text text-anchor="start" x="233.41" y="-547.3" font-family="Times,serif" font-size="14.00">current_sign_in_ip :inet</text>
<text text-anchor="start" x="233.41" y="-533.3" font-family="Times,serif" font-size="14.00">last_sign_in_ip :inet</text>
<text text-anchor="start" x="233.41" y="-519.3" font-family="Times,serif" font-size="14.00">created_at :datetime</text>
<text text-anchor="start" x="233.41" y="-505.3" font-family="Times,serif" font-size="14.00">updated_at :datetime</text>
<text text-anchor="start" x="233.41" y="-491.3" font-family="Times,serif" font-size="14.00">authentication_token :string</text>
<text text-anchor="start" x="233.41" y="-477.3" font-family="Times,serif" font-size="14.00">fullname :string</text>
<text text-anchor="start" x="233.41" y="-463.3" font-family="Times,serif" font-size="14.00">age :integer</text>
<text text-anchor="start" x="233.41" y="-449.3" font-family="Times,serif" font-size="14.00">gender :string</text>
<text text-anchor="start" x="233.41" y="-435.3" font-family="Times,serif" font-size="14.00">profile_picture :text</text>
<text text-anchor="start" x="233.41" y="-421.3" font-family="Times,serif" font-size="14.00">bio :text</text>
<text text-anchor="start" x="233.41" y="-407.3" font-family="Times,serif" font-size="14.00">nickname :string</text>
</g>
<!-- User&#45;&gt;Identity -->
<g id="edge4" class="edge"><title>User&#45;&gt;Identity</title>
<path fill="none" stroke="#ee65b1" d="M267.15,-392.641C263.742,-383.53 260.431,-374.678 257.296,-366.294"/>
<ellipse fill="none" stroke="#ee65b1" cx="268.56" cy="-396.412" rx="4.00001" ry="4.00001"/>
<polygon fill="#ee65b1" stroke="#ee65b1" points="257.203,-366.045 257.914,-355.102 255.451,-361.362 253.7,-356.679 253.7,-356.679 253.7,-356.679 255.451,-361.362 249.485,-358.255 257.203,-366.045 257.203,-366.045"/>
</g>
<!-- User&#45;&gt;Image -->
<g id="edge3" class="edge"><title>User&#45;&gt;Image</title>
<path fill="none" stroke="#74ab52" d="M332.858,-390.235C335.666,-340.244 340,-285.243 346.688,-235 347.831,-226.411 349.214,-217.551 350.745,-208.67"/>
<polygon fill="#74ab52" stroke="#74ab52" points="332.843,-390.507 327.805,-400.247 332.571,-395.5 332.299,-400.492 332.299,-400.492 332.299,-400.492 332.571,-395.5 336.792,-400.737 332.843,-390.507 332.843,-390.507"/>
<polygon fill="#74ab52" stroke="#74ab52" points="350.776,-208.493 356.961,-199.438 351.654,-203.57 352.531,-198.648 352.531,-198.648 352.531,-198.648 351.654,-203.57 348.101,-197.858 350.776,-208.493 350.776,-208.493"/>
</g>
<!-- User&#45;&gt;Story -->
<g id="edge2" class="edge"><title>User&#45;&gt;Story</title>
<path fill="none" stroke="#849667" d="M388.306,-392.425C390.77,-385.837 393.183,-379.386 395.515,-373.15"/>
<ellipse fill="none" stroke="#849667" cx="386.815" cy="-396.412" rx="4.00001" ry="4.00001"/>
<polygon fill="#849667" stroke="#849667" points="395.607,-372.906 403.325,-365.117 397.358,-368.223 399.11,-363.54 399.11,-363.54 399.11,-363.54 397.358,-368.223 394.895,-361.964 395.607,-372.906 395.607,-372.906"/>
</g>
</g>
</svg>
