<?xml version="1.0" encoding="UTF-8" standalone="no"?>
<!DOCTYPE svg PUBLIC "-//W3C//DTD SVG 1.1//EN"
 "http://www.w3.org/Graphics/SVG/1.1/DTD/svg11.dtd">
<!-- Generated by graphviz version 2.38.0 (20140413.2041)
 -->
<!-- Title: models_diagram Pages: 1 -->
<svg width="347pt" height="225pt"
 viewBox="0.00 0.00 346.96 225.00" xmlns="http://www.w3.org/2000/svg" xmlns:xlink="http://www.w3.org/1999/xlink">
<g id="graph0" class="graph" transform="scale(1 1) rotate(0) translate(4 221)">
<title>models_diagram</title>
<polygon fill="white" stroke="none" points="-4,4 -4,-221 342.958,-221 342.958,4 -4,4"/>
<!-- _diagram_info -->
<g id="node1" class="node"><title>_diagram_info</title>
<text text-anchor="start" x="8" y="-202.6" font-family="Times,serif" font-size="13.00">Models diagram</text>
<text text-anchor="start" x="8" y="-189.6" font-family="Times,serif" font-size="13.00">Date: Jun 19 2015 &#45; 18:18</text>
<text text-anchor="start" x="8" y="-176.6" font-family="Times,serif" font-size="13.00">Migration version: 20150602153858</text>
<text text-anchor="start" x="8" y="-163.6" font-family="Times,serif" font-size="13.00">Generated by RailRoady 1.3.0</text>
<text text-anchor="start" x="8" y="-150.6" font-family="Times,serif" font-size="13.00">http://railroady.prestonlee.com</text>
</g>
<!-- Identity -->
<g id="node2" class="node"><title>Identity</title>
<ellipse fill="none" stroke="black" cx="186.688" cy="-90" rx="37.7266" ry="18"/>
<text text-anchor="middle" x="186.688" y="-85.8" font-family="Times,serif" font-size="14.00">Identity</text>
</g>
<!-- Image -->
<g id="node3" class="node"><title>Image</title>
<ellipse fill="none" stroke="black" cx="280.688" cy="-18" rx="32.4063" ry="18"/>
<text text-anchor="middle" x="280.688" y="-13.8" font-family="Times,serif" font-size="14.00">Image</text>
</g>
<!-- Story -->
<g id="node4" class="node"><title>Story</title>
<ellipse fill="none" stroke="black" cx="309.688" cy="-90" rx="29.0429" ry="18"/>
<text text-anchor="middle" x="309.688" y="-85.8" font-family="Times,serif" font-size="14.00">Story</text>
</g>
<!-- Story&#45;&gt;Image -->
<g id="edge1" class="edge"><title>Story&#45;&gt;Image</title>
<path fill="none" stroke="#eed278" d="M299.653,-64.7779C297.07,-58.544 294.278,-51.8046 291.651,-45.4634"/>
<ellipse fill="none" stroke="#eed278" cx="301.284" cy="-68.7155" rx="4.00001" ry="4.00001"/>
<polygon fill="#eed278" stroke="#eed278" points="291.54,-45.1948 291.87,-34.2339 289.626,-40.5755 287.712,-35.9562 287.712,-35.9562 287.712,-35.9562 289.626,-40.5755 283.555,-37.6786 291.54,-45.1948 291.54,-45.1948"/>
</g>
<!-- User -->
<g id="node5" class="node"><title>User</title>
<ellipse fill="none" stroke="black" cx="252.688" cy="-180.5" rx="27" ry="18"/>
<text text-anchor="middle" x="252.688" y="-176.3" font-family="Times,serif" font-size="14.00">User</text>
</g>
<!-- User&#45;&gt;Identity -->
<g id="edge4" class="edge"><title>User&#45;&gt;Identity</title>
<path fill="none" stroke="#9cca6c" d="M236.134,-157.303C226.591,-144.506 214.582,-128.403 204.789,-115.272"/>
<ellipse fill="none" stroke="#9cca6c" cx="238.8" cy="-160.878" rx="4.00002" ry="4.00002"/>
<polygon fill="#9cca6c" stroke="#9cca6c" points="204.699,-115.152 202.329,-104.446 201.71,-111.144 198.721,-107.136 198.721,-107.136 198.721,-107.136 201.71,-111.144 195.114,-109.826 204.699,-115.152 204.699,-115.152"/>
</g>
<!-- User&#45;&gt;Image -->
<g id="edge3" class="edge"><title>User&#45;&gt;Image</title>
<path fill="none" stroke="#0cd066" d="M257.42,-152.372C262.584,-122.776 270.8,-75.6783 275.961,-46.0947"/>
<polygon fill="#0cd066" stroke="#0cd066" points="257.403,-152.472 251.251,-161.55 256.544,-157.398 255.684,-162.324 255.684,-162.324 255.684,-162.324 256.544,-157.398 260.117,-163.097 257.403,-152.472 257.403,-152.472"/>
<polygon fill="#0cd066" stroke="#0cd066" points="275.994,-45.904 282.146,-36.8262 276.853,-40.9784 277.713,-36.0528 277.713,-36.0528 277.713,-36.0528 276.853,-40.9784 273.28,-35.2794 275.994,-45.904 275.994,-45.904"/>
</g>
<!-- User&#45;&gt;Story -->
<g id="edge2" class="edge"><title>User&#45;&gt;Story</title>
<path fill="none" stroke="#e86f2e" d="M267.254,-156.884C275.42,-144.206 285.609,-128.386 293.956,-115.425"/>
<ellipse fill="none" stroke="#e86f2e" cx="265.044" cy="-160.315" rx="4.00002" ry="4.00002"/>
<polygon fill="#e86f2e" stroke="#e86f2e" points="293.979,-115.391 303.177,-109.42 296.686,-111.187 299.393,-106.983 299.393,-106.983 299.393,-106.983 296.686,-111.187 295.61,-104.547 293.979,-115.391 293.979,-115.391"/>
</g>
</g>
</svg>
